<svg width="800" height="450" viewBox="0 0 800 450" fill="none" xmlns="http://www.w3.org/2000/svg">
<rect width="800" height="450" fill="#2231AA"/>
<rect width="800" height="450" fill="#2231AA"/>
<path d="M181 250.486V184.755H207.349C212.19 184.755 216.228 185.472 219.463 186.906C222.698 188.339 225.129 190.329 226.757 192.875C228.385 195.4 229.199 198.31 229.199 201.605C229.199 204.173 228.685 206.43 227.657 208.377C226.629 210.303 225.215 211.886 223.415 213.127C221.637 214.347 219.602 215.213 217.31 215.727V216.369C219.817 216.476 222.162 217.182 224.347 218.487C226.554 219.792 228.343 221.622 229.714 223.975C231.085 226.308 231.77 229.089 231.77 232.32C231.77 235.808 230.902 238.921 229.167 241.66C227.454 244.377 224.915 246.528 221.552 248.111C218.189 249.694 214.043 250.486 209.116 250.486H181ZM194.914 239.124H206.256C210.134 239.124 212.962 238.386 214.74 236.91C216.518 235.412 217.407 233.422 217.407 230.94C217.407 229.121 216.967 227.517 216.089 226.126C215.211 224.735 213.958 223.644 212.33 222.852C210.723 222.06 208.806 221.665 206.578 221.665H194.914V239.124ZM194.914 212.261H205.228C207.135 212.261 208.827 211.929 210.305 211.266C211.805 210.581 212.983 209.618 213.84 208.377C214.718 207.136 215.157 205.649 215.157 203.916C215.157 201.541 214.311 199.626 212.619 198.171C210.948 196.716 208.57 195.988 205.485 195.988H194.914V212.261Z" fill="white"/>
<path d="M254.255 184.755V250.486H240.566V184.755H254.255Z" fill="white"/>
<path d="M287.521 251.449C282.529 251.449 278.213 250.39 274.571 248.272C270.951 246.132 268.155 243.158 266.184 239.349C264.214 235.519 263.228 231.079 263.228 226.03C263.228 220.937 264.214 216.487 266.184 212.678C268.155 208.848 270.951 205.874 274.571 203.755C278.213 201.616 282.529 200.546 287.521 200.546C292.512 200.546 296.818 201.616 300.438 203.755C304.08 205.874 306.886 208.848 308.857 212.678C310.828 216.487 311.813 220.937 311.813 226.03C311.813 231.079 310.828 235.519 308.857 239.349C306.886 243.158 304.08 246.132 300.438 248.272C296.818 250.39 292.512 251.449 287.521 251.449ZM287.585 240.858C289.856 240.858 291.752 240.216 293.272 238.932C294.793 237.627 295.94 235.851 296.711 233.604C297.503 231.357 297.9 228.8 297.9 225.933C297.9 223.066 297.503 220.509 296.711 218.263C295.94 216.016 294.793 214.24 293.272 212.935C291.752 211.63 289.856 210.977 287.585 210.977C285.293 210.977 283.365 211.63 281.801 212.935C280.259 214.24 279.091 216.016 278.299 218.263C277.527 220.509 277.142 223.066 277.142 225.933C277.142 228.8 277.527 231.357 278.299 233.604C279.091 235.851 280.259 237.627 281.801 238.932C283.365 240.216 285.293 240.858 287.585 240.858Z" fill="white"/>
<path d="M342.95 270C338.516 270 334.713 269.39 331.543 268.171C328.394 266.972 325.887 265.335 324.024 263.26C322.16 261.185 320.95 258.852 320.393 256.263L333.053 254.562C333.439 255.546 334.049 256.467 334.885 257.322C335.72 258.178 336.823 258.863 338.194 259.376C339.587 259.911 341.279 260.179 343.271 260.179C346.249 260.179 348.702 259.451 350.63 257.996C352.579 256.563 353.554 254.156 353.554 250.775V241.756H352.976C352.376 243.126 351.476 244.42 350.276 245.64C349.077 246.859 347.534 247.854 345.649 248.625C343.764 249.395 341.515 249.78 338.901 249.78C335.195 249.78 331.821 248.924 328.779 247.212C325.759 245.479 323.349 242.837 321.549 239.285C319.771 235.712 318.882 231.197 318.882 225.741C318.882 220.156 319.793 215.492 321.614 211.747C323.435 208.003 325.855 205.2 328.876 203.338C331.918 201.477 335.249 200.546 338.869 200.546C341.633 200.546 343.946 201.017 345.81 201.958C347.674 202.878 349.173 204.034 350.308 205.424C351.465 206.794 352.354 208.142 352.976 209.468H353.49V201.188H367.082V250.968C367.082 255.161 366.054 258.67 363.997 261.495C361.941 264.319 359.091 266.437 355.45 267.85C351.829 269.283 347.663 270 342.95 270ZM343.239 239.51C345.446 239.51 347.309 238.964 348.83 237.873C350.373 236.76 351.551 235.177 352.365 233.123C353.2 231.047 353.618 228.565 353.618 225.677C353.618 222.788 353.211 220.285 352.397 218.166C351.583 216.027 350.405 214.368 348.862 213.191C347.32 212.015 345.446 211.426 343.239 211.426C340.99 211.426 339.094 212.036 337.552 213.256C336.009 214.454 334.842 216.123 334.049 218.263C333.257 220.402 332.86 222.874 332.86 225.677C332.86 228.522 333.257 230.983 334.049 233.058C334.863 235.113 336.031 236.707 337.552 237.841C339.094 238.953 340.99 239.51 343.239 239.51Z" fill="white"/>
<path d="M400.275 251.449C395.284 251.449 390.967 250.39 387.326 248.272C383.705 246.132 380.91 243.158 378.939 239.349C376.968 235.519 375.983 231.079 375.983 226.03C375.983 220.937 376.968 216.487 378.939 212.678C380.91 208.848 383.705 205.874 387.326 203.755C390.967 201.616 395.284 200.546 400.275 200.546C405.267 200.546 409.572 201.616 413.193 203.755C416.834 205.874 419.641 208.848 421.611 212.678C423.582 216.487 424.568 220.937 424.568 226.03C424.568 231.079 423.582 235.519 421.611 239.349C419.641 243.158 416.834 246.132 413.193 248.272C409.572 250.39 405.267 251.449 400.275 251.449ZM400.339 240.858C402.61 240.858 404.506 240.216 406.027 238.932C407.548 237.627 408.694 235.851 409.465 233.604C410.258 231.357 410.654 228.8 410.654 225.933C410.654 223.066 410.258 220.509 409.465 218.263C408.694 216.016 407.548 214.24 406.027 212.935C404.506 211.63 402.61 210.977 400.339 210.977C398.047 210.977 396.119 211.63 394.556 212.935C393.013 214.24 391.846 216.016 391.053 218.263C390.282 220.509 389.896 223.066 389.896 225.933C389.896 228.8 390.282 231.357 391.053 233.604C391.846 235.851 393.013 237.627 394.556 238.932C396.119 240.216 398.047 240.858 400.339 240.858Z" fill="white"/>
<path d="M460.01 201.188V211.458H429.548V201.188H460.01ZM436.521 250.486V197.625C436.521 194.052 437.217 191.089 438.61 188.735C440.024 186.381 441.952 184.616 444.394 183.439C446.836 182.262 449.61 181.674 452.716 181.674C454.815 181.674 456.733 181.834 458.468 182.155C460.225 182.476 461.531 182.765 462.388 183.022L459.946 193.292C459.41 193.121 458.746 192.961 457.954 192.811C457.183 192.661 456.39 192.586 455.576 192.586C453.562 192.586 452.159 193.057 451.367 193.999C450.574 194.919 450.178 196.213 450.178 197.882V250.486H436.521Z" fill="white"/>
<path d="M488.906 251.449C483.915 251.449 479.598 250.39 475.956 248.272C472.336 246.132 469.54 243.158 467.57 239.349C465.599 235.519 464.613 231.079 464.613 226.03C464.613 220.937 465.599 216.487 467.57 212.678C469.54 208.848 472.336 205.874 475.956 203.755C479.598 201.616 483.915 200.546 488.906 200.546C493.897 200.546 498.203 201.616 501.823 203.755C505.465 205.874 508.271 208.848 510.242 212.678C512.213 216.487 513.198 220.937 513.198 226.03C513.198 231.079 512.213 235.519 510.242 239.349C508.271 243.158 505.465 246.132 501.823 248.272C498.203 250.39 493.897 251.449 488.906 251.449ZM488.97 240.858C491.241 240.858 493.137 240.216 494.658 238.932C496.179 237.627 497.325 235.851 498.096 233.604C498.889 231.357 499.285 228.8 499.285 225.933C499.285 223.066 498.889 220.509 498.096 218.263C497.325 216.016 496.179 214.24 494.658 212.935C493.137 211.63 491.241 210.977 488.97 210.977C486.678 210.977 484.75 211.63 483.186 212.935C481.644 214.24 480.476 216.016 479.684 218.263C478.913 220.509 478.527 223.066 478.527 225.933C478.527 228.8 478.913 231.357 479.684 233.604C480.476 235.851 481.644 237.627 483.186 238.932C484.75 240.216 486.678 240.858 488.97 240.858Z" fill="white"/>
<path d="M535.788 184.755V250.486H522.099V184.755H535.788Z" fill="white"/>
<path d="M546.753 250.486V201.188H560.442V250.486H546.753ZM553.63 194.833C551.595 194.833 549.849 194.159 548.392 192.811C546.957 191.442 546.239 189.805 546.239 187.9C546.239 186.018 546.957 184.402 548.392 183.054C549.849 181.685 551.595 181 553.63 181C555.665 181 557.4 181.685 558.835 183.054C560.292 184.402 561.02 186.018 561.02 187.9C561.02 189.805 560.292 191.442 558.835 192.811C557.4 194.159 555.665 194.833 553.63 194.833Z" fill="white"/>
<path d="M593.707 251.449C588.716 251.449 584.4 250.39 580.758 248.272C577.138 246.132 574.342 243.158 572.371 239.349C570.4 235.519 569.415 231.079 569.415 226.03C569.415 220.937 570.4 216.487 572.371 212.678C574.342 208.848 577.138 205.874 580.758 203.755C584.4 201.616 588.716 200.546 593.707 200.546C598.699 200.546 603.005 201.616 606.625 203.755C610.267 205.874 613.073 208.848 615.044 212.678C617.015 216.487 618 220.937 618 226.03C618 231.079 617.015 235.519 615.044 239.349C613.073 243.158 610.267 246.132 606.625 248.272C603.005 250.39 598.699 251.449 593.707 251.449ZM593.772 240.858C596.042 240.858 597.938 240.216 599.459 238.932C600.98 237.627 602.126 235.851 602.898 233.604C603.69 231.357 604.086 228.8 604.086 225.933C604.086 223.066 603.69 220.509 602.898 218.263C602.126 216.016 600.98 214.24 599.459 212.935C597.938 211.63 596.042 210.977 593.772 210.977C591.48 210.977 589.552 211.63 587.988 212.935C586.445 214.24 585.278 216.016 584.485 218.263C583.714 220.509 583.329 223.066 583.329 225.933C583.329 228.8 583.714 231.357 584.485 233.604C585.278 235.851 586.445 237.627 587.988 238.932C589.552 240.216 591.48 240.858 593.772 240.858Z" fill="white"/>
</svg>
